<svg width="90" height="32" viewBox="0 0 90 32" fill="none" xmlns="http://www.w3.org/2000/svg">
<path d="M43.2753 15.3211C42.2255 15.3211 41.2774 15.1374 40.431 14.77C39.5912 14.396 38.899 13.8645 38.3544 13.1756C37.8163 12.4801 37.4752 11.6534 37.3308 10.6954L40.1259 10.2821C40.3228 11.0957 40.7296 11.7223 41.3463 12.1619C41.9631 12.6015 42.6651 12.8213 43.4525 12.8213C43.8921 12.8213 44.3186 12.7524 44.7319 12.6146C45.1453 12.4768 45.4832 12.2734 45.7457 12.0044C46.0147 11.7354 46.1492 11.404 46.1492 11.0104C46.1492 10.866 46.1262 10.7282 46.0803 10.597C46.0409 10.4592 45.972 10.3313 45.8736 10.2132C45.7752 10.0951 45.6341 9.98353 45.4504 9.87855C45.2733 9.77357 45.0469 9.67843 44.7713 9.59313L41.0904 8.51052C40.8149 8.43178 40.4934 8.32024 40.1259 8.17589C39.7651 8.03154 39.414 7.82486 39.0728 7.55585C38.7316 7.28684 38.4462 6.93253 38.2166 6.49292C37.9935 6.04675 37.882 5.48576 37.882 4.80995C37.882 3.85856 38.1214 3.06793 38.6004 2.43804C39.0794 1.80816 39.7191 1.33903 40.5196 1.03065C41.3201 0.722267 42.2059 0.571357 43.1769 0.577919C44.1546 0.591041 45.0272 0.758354 45.7949 1.07986C46.5625 1.40136 47.2056 1.87049 47.7239 2.48725C48.2422 3.09745 48.6162 3.84544 48.8459 4.73122L45.9523 5.22331C45.8474 4.76402 45.6538 4.37691 45.3717 4.06196C45.0895 3.74702 44.7516 3.50753 44.358 3.3435C43.9708 3.17947 43.564 3.09089 43.1376 3.07777C42.7176 3.06465 42.3207 3.1237 41.9467 3.25492C41.5792 3.37959 41.2774 3.56331 41.0412 3.80607C40.8116 4.04884 40.6968 4.33754 40.6968 4.67216C40.6968 4.98054 40.7919 5.23315 40.9822 5.42999C41.1724 5.62027 41.4119 5.77446 41.7006 5.89256C41.9893 6.01067 42.2846 6.10909 42.5864 6.18782L45.0469 6.85707C45.4143 6.95549 45.8211 7.08672 46.2673 7.25075C46.7135 7.40822 47.1399 7.63131 47.5467 7.92C47.9601 8.20214 48.298 8.57613 48.5605 9.04198C48.8295 9.50783 48.964 10.0984 48.964 10.8135C48.964 11.5746 48.8032 12.2406 48.4817 12.8114C48.1668 13.3757 47.7403 13.8448 47.2023 14.2188C46.6642 14.5863 46.054 14.8618 45.3717 15.0456C44.6959 15.2293 43.9971 15.3211 43.2753 15.3211ZM56.7174 15.0259C55.9826 15.1637 55.2608 15.2227 54.5522 15.203C53.8501 15.1899 53.2203 15.0685 52.6625 14.8389C52.1114 14.6027 51.6915 14.2254 51.4028 13.7071C51.1403 13.2215 51.0025 12.7294 50.9894 12.2308C50.9763 11.7256 50.9697 11.1547 50.9697 10.5183V1.44401H53.6467V10.3608C53.6467 10.7742 53.65 11.1482 53.6566 11.4828C53.6697 11.8108 53.7386 12.0733 53.8633 12.2701C54.0995 12.6441 54.4767 12.8475 54.9951 12.8803C55.5134 12.9131 56.0875 12.8869 56.7174 12.8016V15.0259ZM49.1588 6.4634V4.39659H56.7174V6.4634H49.1588ZM61.2513 15.3211C60.4902 15.3211 59.8439 15.1768 59.3125 14.8881C58.7876 14.5928 58.3873 14.2024 58.1117 13.7169C57.8427 13.2248 57.7082 12.6835 57.7082 12.093C57.7082 11.6009 57.7837 11.1514 57.9346 10.7446C58.0855 10.3378 58.3283 9.98025 58.6629 9.67187C59.0041 9.35692 59.4601 9.09447 60.0309 8.88451C60.4246 8.74016 60.8937 8.61222 61.4383 8.50068C61.9829 8.38913 62.5997 8.28415 63.2886 8.18573C63.9775 8.08075 64.7354 7.96593 65.5621 7.84127L64.5976 8.37273C64.5976 7.74285 64.4467 7.28028 64.1449 6.98502C63.843 6.68976 63.3378 6.54213 62.6292 6.54213C62.2355 6.54213 61.8254 6.63727 61.399 6.82755C60.9725 7.01782 60.6739 7.35573 60.5033 7.84127L58.0822 7.0736C58.3512 6.19438 58.8565 5.4792 59.5979 4.92805C60.3393 4.37691 61.3497 4.10133 62.6292 4.10133C63.5675 4.10133 64.4007 4.24568 65.129 4.53438C65.8574 4.82307 66.4085 5.32173 66.7825 6.03035C66.9925 6.42403 67.1171 6.81771 67.1565 7.21138C67.1959 7.60506 67.2155 8.04467 67.2155 8.5302V15.0259H64.8732V12.841L65.2078 13.2937C64.6894 14.0089 64.1285 14.5272 63.5248 14.8487C62.9277 15.1637 62.1699 15.3211 61.2513 15.3211ZM61.8222 13.215C62.3143 13.215 62.7276 13.1297 63.0622 12.9591C63.4034 12.7819 63.6724 12.5818 63.8693 12.3587C64.0727 12.1356 64.2105 11.9486 64.2826 11.7977C64.4204 11.509 64.4992 11.1744 64.5188 10.7938C64.5451 10.4067 64.5582 10.0852 64.5582 9.82934L65.3456 10.0262C64.5517 10.1574 63.9086 10.2689 63.4166 10.3608C62.9245 10.4461 62.5275 10.5248 62.2257 10.597C61.9239 10.6692 61.6581 10.7479 61.4285 10.8332C61.166 10.9382 60.9528 11.053 60.7888 11.1777C60.6313 11.2958 60.5132 11.427 60.4344 11.5714C60.3623 11.7157 60.3262 11.8765 60.3262 12.0536C60.3262 12.2964 60.3852 12.5063 60.5033 12.6835C60.628 12.8541 60.8019 12.9853 61.025 13.0772C61.248 13.169 61.5138 13.215 61.8222 13.215ZM73.672 15.3211C72.5697 15.3211 71.6249 15.0751 70.8375 14.583C70.0502 14.0909 69.4465 13.4216 69.0266 12.5752C68.6067 11.7288 68.3967 10.7742 68.3967 9.71123C68.3967 8.63518 68.6132 7.67395 69.0463 6.82755C69.4859 5.98114 70.1027 5.31517 70.8966 4.82963C71.6905 4.3441 72.6288 4.10133 73.7114 4.10133C74.9646 4.10133 76.0144 4.41955 76.8608 5.056C77.7138 5.68588 78.2583 6.54869 78.4945 7.64443L75.8175 8.35305C75.6601 7.8019 75.3845 7.37213 74.9908 7.06375C74.6037 6.75537 74.1641 6.60118 73.672 6.60118C73.1077 6.60118 72.6452 6.73897 72.2843 7.01454C71.9234 7.28356 71.6577 7.65427 71.4871 8.12668C71.3165 8.59253 71.2312 9.12072 71.2312 9.71123C71.2312 10.6364 71.4346 11.3876 71.8414 11.965C72.2548 12.5359 72.865 12.8213 73.672 12.8213C74.2756 12.8213 74.7349 12.6835 75.0499 12.4079C75.3648 12.1324 75.601 11.7387 75.7585 11.2269L78.4945 11.7977C78.1927 12.9263 77.6219 13.7956 76.7821 14.4058C75.9422 15.016 74.9055 15.3211 73.672 15.3211ZM79.6561 15.0259L79.6757 0.853493H82.3921V9.5144L85.9943 4.39659H89.3011L85.4628 9.71123L89.557 15.0259H86.073L82.3921 9.90807V15.0259H79.6561Z" fill="black"/>
<path d="M36.8092 30.9255L41.1397 16.7532H45.1355L49.4659 30.9255H46.7102L42.8522 18.4263H43.3639L39.5649 30.9255H36.8092ZM39.4075 27.973V25.4731H46.8873V27.973H39.4075ZM54.399 31.2405C53.5658 31.2405 52.8867 31.0994 52.3618 30.8173C51.8369 30.5351 51.4268 30.1776 51.1315 29.7445C50.8428 29.3115 50.6361 28.862 50.5115 28.3962C50.3868 27.9237 50.3114 27.494 50.2851 27.1069C50.2589 26.7198 50.2458 26.4376 50.2458 26.2605V20.2962H52.9621V25.3156C52.9621 25.5584 52.9752 25.8701 53.0015 26.2506C53.0277 26.6246 53.1098 27.0019 53.2475 27.3824C53.3853 27.763 53.6084 28.0812 53.9168 28.3371C54.2317 28.593 54.6746 28.7209 55.2455 28.7209C55.4751 28.7209 55.7211 28.6849 55.9836 28.6127C56.2461 28.5405 56.4921 28.4027 56.7217 28.1993C56.9514 27.9894 57.1384 27.6843 57.2827 27.284C57.4336 26.8772 57.5091 26.3458 57.5091 25.6896L59.0444 26.4179C59.0444 27.2578 58.8738 28.0451 58.5327 28.78C58.1915 29.5149 57.6764 30.1087 56.9875 30.5614C56.3051 31.0141 55.4423 31.2405 54.399 31.2405ZM57.8437 30.9255V27.4021H57.5091V20.2962H60.2058V30.9255H57.8437ZM68.5467 30.9255C67.8118 31.0633 67.0901 31.1224 66.3814 31.1027C65.6794 31.0896 65.0495 30.9682 64.4918 30.7385C63.9407 30.5023 63.5207 30.1251 63.232 29.6067C62.9696 29.1212 62.8318 28.6291 62.8187 28.1304C62.8055 27.6252 62.799 27.0544 62.799 26.4179V17.3437H65.476V26.2605C65.476 26.6738 65.4793 27.0478 65.4858 27.3824C65.499 27.7105 65.5679 27.973 65.6925 28.1698C65.9287 28.5438 66.306 28.7472 66.8243 28.78C67.3427 28.8128 67.9168 28.7866 68.5467 28.7013V30.9255ZM60.9881 22.3631V20.2962H68.5467V22.3631H60.9881ZM77.3717 30.9255V25.9062C77.3717 25.6634 77.3585 25.355 77.3323 24.981C77.306 24.6005 77.224 24.2199 77.0862 23.8393C76.9485 23.4588 76.7221 23.1406 76.4072 22.8847C76.0988 22.6288 75.6592 22.5008 75.0883 22.5008C74.8587 22.5008 74.6126 22.5369 74.3502 22.6091C74.0877 22.6813 73.8417 22.8223 73.612 23.0323C73.3824 23.2357 73.1921 23.5375 73.0412 23.9378C72.8969 24.338 72.8247 24.8695 72.8247 25.5322L71.2893 24.8039C71.2893 23.964 71.4599 23.1767 71.8011 22.4418C72.1423 21.7069 72.6541 21.1131 73.3365 20.6604C74.0254 20.2077 74.8915 19.9813 75.9347 19.9813C76.768 19.9813 77.4471 20.1224 77.972 20.4045C78.4969 20.6866 78.9037 21.0442 79.1924 21.4773C79.4877 21.9103 79.6976 22.3631 79.8223 22.8355C79.947 23.3013 80.0224 23.7278 80.0487 24.1149C80.0749 24.502 80.088 24.7842 80.088 24.9613V30.9255H77.3717ZM70.1083 30.9255V16.7532H72.4901V24.0362H72.8247V30.9255H70.1083Z" fill="black"/>
<path d="M25.2462 5.93581L14.1627 0.447508C13.5931 0.165462 12.9246 0.165036 12.3547 0.446355L0 6.54449V17.9761L13.259 24.5631L23.8406 19.2085V23.0332L13.259 28.3453L0 21.8433V24.5111C0 25.063 0.314397 25.5667 0.810205 25.8092L12.5594 31.554C13.1338 31.8349 13.8067 31.8302 14.3771 31.5412L26.4754 25.413V16.3583C26.4754 15.3561 25.4283 14.6982 24.5254 15.1331L16.0637 19.2085V15.5963L26.4754 10.3267V7.91615C26.4754 7.07605 25.9991 6.30861 25.2462 5.93581Z" fill="black"/>
</svg>
