<svg width="131" height="156" viewBox="0 0 131 156" fill="none" xmlns="http://www.w3.org/2000/svg">
<path d="M124.042 28.6459L69.7327 1.75616C66.9416 0.374284 63.666 0.372197 60.8735 1.75051L0.335449 31.6281V87.6369L65.3045 119.91L117.154 93.675V112.414L65.3045 138.44L0.335449 106.584V119.655C0.335449 122.359 1.87599 124.827 4.30545 126.015L61.8765 154.161C64.6911 155.538 67.9883 155.515 70.7832 154.099L130.065 124.074V79.7105C130.065 74.8003 124.934 71.5769 120.51 73.7077L79.0476 93.675V75.9771L130.065 50.1589V38.3485C130.065 34.2325 127.731 30.4724 124.042 28.6459Z" fill="white"/>
</svg>
